<svg width="41" height="39" viewBox="0 0 41 39" fill="none" xmlns="http://www.w3.org/2000/svg">
<path d="M39.9161 13.0483L39.9176 13.0511C38.7585 10.0424 36.8902 7.31768 34.4153 5.12963H34.4138C34.4138 5.12963 34.4039 5.1197 34.3996 5.11393C34.3981 5.11259 34.3953 5.11112 34.3938 5.1083C34.3811 5.09394 34.3667 5.08254 34.3525 5.06979C34.3467 5.06402 34.3411 5.05838 34.3353 5.05261C34.3325 5.0498 34.3282 5.04684 34.3254 5.04403C34.3211 5.04121 34.3168 5.03692 34.3125 5.0341C30.7015 1.87407 26.0786 0.0927171 21.29 0.0156988L21.1986 0.00992919C21.1201 0.0042937 21.0402 0 20.9602 0C20.8802 0 20.8004 0.0042937 20.7219 0.00992919L20.6305 0.0156988C15.8406 0.0927171 11.2162 1.87541 7.60651 5.0341C7.60369 5.03544 7.60235 5.03839 7.59939 5.03973C7.5951 5.04403 7.58946 5.04832 7.58517 5.05261C3.17769 8.91775 0.649902 14.4784 0.649902 20.3089C0.649902 26.1395 2.8523 31.0335 6.85148 34.9002L6.85444 34.903C6.85578 34.9044 6.8586 34.9073 6.86155 34.9086C6.86718 34.9144 6.87429 34.9187 6.88006 34.9243C6.88865 34.9329 6.89858 34.9415 6.90717 34.9501C8.42727 36.4115 10.1442 37.6119 11.9955 38.5226C11.977 38.4712 11.9598 38.4198 11.9426 38.3684C11.837 38.0944 11.7514 37.8275 11.68 37.562C11.5273 36.9996 11.4474 36.4558 11.4288 35.9263C10.6082 35.4253 9.82313 34.8559 9.08233 34.2221C10.0943 33.4385 11.1862 32.7777 12.3223 32.1926L12.8191 31.3419C12.8191 31.3419 12.8133 31.3376 12.8105 31.3348C12.9232 31.1563 13.0417 30.9793 13.1644 30.8038C13.9095 29.8732 13.9766 29.6476 14.1606 29.5177C14.1478 29.4893 14.0508 29.4579 14.0394 29.4278C14.0194 29.3936 14.0051 29.3622 13.9937 29.328C12.6182 25.202 12.4053 24.1664 12.4053 24.1664C12.1792 23.0625 11.9592 21.4206 12.0925 19.3099C12.2353 16.1541 13.0488 13.0498 14.476 10.2323C16.2759 10.806 18.1128 11.1415 19.9583 11.2299V14.9464C19.9591 14.9461 19.9583 14.9869 19.9608 14.946C20.1302 14.9869 20.2583 14.955 20.4071 14.9593C20.6726 14.9669 20.9383 14.9739 21.204 14.9789C21.4588 14.9837 21.7136 14.9866 21.9685 14.9869L21.9609 14.9731V11.2271C23.8064 11.1385 25.6433 10.8046 27.4417 10.2293V10.2308C28.0883 11.5039 28.6093 12.8371 28.996 14.2072C29.0332 14.3343 29.0688 14.4627 29.1031 14.5912C29.4043 14.3314 29.6555 14.1416 29.8325 14.0517C29.8867 14.0145 29.9423 13.9775 29.9966 13.9446C30.2778 13.762 30.5675 13.5992 30.8658 13.4593C30.8058 13.2524 30.743 13.0455 30.6774 12.8399C30.3105 11.7066 29.8596 10.6005 29.3329 9.53001H29.3314V9.52719C30.8558 8.88206 32.2902 8.07417 33.6147 7.10648C35.062 8.49241 36.2581 10.0938 37.1729 11.8351C37.4441 12.3518 37.6897 12.8827 37.9109 13.4237C38.3718 13.6249 38.8158 13.8689 39.2354 14.1516C39.7478 14.497 40.2231 14.9009 40.6499 15.3619C40.4529 14.5755 40.2074 13.8033 39.9162 13.0483H39.9161ZM12.1325 30.0701C10.5182 30.7995 9.00531 31.7229 7.61804 32.8276C4.63781 29.662 2.9108 25.6327 2.67962 21.3109H10.0872C10.21 24.3339 10.8964 27.2727 12.1325 30.0701ZM10.0872 19.3084H2.67962C2.93509 14.691 4.94468 10.3293 8.30302 7.1093C9.62763 8.07699 11.0635 8.88488 12.5892 9.53001C11.0835 12.573 10.2285 15.9143 10.0872 19.3084ZM13.5541 7.76583C12.2495 7.22925 11.0179 6.55836 9.87304 5.76336C12.2952 3.91653 15.1369 2.70611 18.13 2.23662C16.3402 3.84796 14.79 5.72055 13.5541 7.76583ZM19.9583 9.22314C18.4553 9.14317 16.9581 8.8834 15.4852 8.44665C16.6969 6.52562 18.2141 4.77996 19.9583 3.29703V9.22314ZM21.9608 9.22314V3.29703C23.7049 4.77996 25.2221 6.52562 26.4325 8.44665C24.9595 8.8834 23.4623 9.14317 21.9608 9.22314ZM28.3636 7.76583C27.129 5.72055 25.5775 3.84944 23.7877 2.23662C26.7807 2.70611 29.6225 3.91653 32.0445 5.76336C30.8985 6.55702 29.6681 7.22925 28.3636 7.76583Z" fill="#05147A"/>
</svg>
