<svg width="613" height="694" viewBox="0 0 613 694" fill="none" xmlns="http://www.w3.org/2000/svg">
<path d="M0.500187 126.557C6.66411 284.441 10.7607 370.455 24.0983 500.279C35.3808 549.923 47.3157 570.464 86.0433 584.477C240.276 628.501 348.47 663.749 473.937 693.787C525.021 692.561 543.233 679.253 559.48 649.472C587.243 544.429 592.436 429.416 612.576 283.136C615.276 226.723 604.109 203.811 559.48 179.735C395.978 111.076 158.313 17.2477 158.313 17.2477C158.313 17.2477 112.883 -4.61124 86.0433 0.998922C54.653 10.8427 40.9969 21.7422 24.0983 43.8365C4.60301 69.9063 -0.503082 88.0339 0.500187 126.557Z" fill="#7389D7"/>
</svg>
